<svg width="70" height="70" fill="none" xmlns="http://www.w3.org/2000/svg"><path d="M63.438 17.5H6.562c-1.208 0-2.187.98-2.187 2.188v30.625c0 1.208.98 2.187 2.188 2.187h56.874c1.209 0 2.188-.98 2.188-2.188V19.689c0-1.209-.98-2.188-2.188-2.188z" stroke="#4169C1" stroke-width="3" stroke-linecap="round" stroke-linejoin="round"/><path d="M35 42.656a7.656 7.656 0 100-15.312 7.656 7.656 0 000 15.312zM45.938 17.5L65.624 35M45.938 52.5L65.624 35M24.063 17.5L4.375 35m19.688 17.5L4.375 35" stroke="#4169C1" stroke-width="3" stroke-linecap="round" stroke-linejoin="round"/></svg>