<svg width="20" height="20" fill="none" xmlns="http://www.w3.org/2000/svg"><path d="M10.04 0C4.553 0 .08 4.45.08 9.91a9.9 9.9 0 001.327 4.949L0 19.999l5.276-1.38c1.458.79 3.096 1.21 4.764 1.21 5.488 0 9.96-4.45 9.96-9.91a9.82 9.82 0 00-2.915-7.01A9.868 9.868 0 0013.857.75 9.908 9.908 0 0010.04 0zm.01 1.67c2.211 0 4.282.86 5.85 2.42a8.189 8.189 0 012.422 5.83c0 4.539-3.719 8.229-8.282 8.229a8.174 8.174 0 01-4.21-1.15l-.302-.17-3.136.82.834-3.04-.2-.32a8.157 8.157 0 01-1.267-4.38c.01-4.54 3.718-8.24 8.291-8.24zM6.513 5.33a.92.92 0 00-.664.31c-.22.25-.874.86-.874 2.07 0 1.22.894 2.39 1.005 2.56.14.17 1.769 2.669 4.271 3.729.593.27 1.056.42 1.417.53.593.19 1.136.16 1.568.1.483-.07 1.467-.6 1.679-1.18.21-.58.21-1.07.15-1.18-.07-.1-.23-.16-.482-.27-.251-.14-1.478-.74-1.699-.82-.23-.08-.371-.12-.562.12-.161.25-.644.81-.784.97-.151.17-.292.19-.533.07-.261-.13-1.065-.39-2.01-1.23-.744-.66-1.236-1.47-1.387-1.72-.12-.24-.01-.39.11-.5.111-.11.272-.29.372-.44.131-.14.171-.25.252-.41.08-.17.04-.31-.02-.43-.06-.11-.563-1.35-.774-1.84-.201-.48-.402-.42-.563-.43-.14 0-.302-.01-.472-.01z" fill="#fff"/></svg>