<svg width="49" height="46" fill="none" xmlns="http://www.w3.org/2000/svg"><path d="M13.5 45.508H20l-13.5-22H0l13.5 22z" fill="#EFA56E"/><path d="M35.016.492h-6.5l13.5 22h6.5l-13.5-22z" fill="#044079"/><path d="M21 45.508h6.5l-13.5-22H7.5l13.5 22z" fill="#DB8241"/><path d="M27.516.492h-6.5l13.5 22h6.5l-13.5-22z" fill="#10579A"/><path d="M28.5 45.508H35l-13.5-22H15l13.5 22z" fill="#CD6F2A"/><path d="M20.016.492h-6.5l13.5 22h6.5l-13.5-22z" fill="#246DB1"/><path d="M36.039 45.523L22.493 23.5h26.023L36.039 45.523z" fill="#B85915"/><path d="M12.477.477L26.022 22.5H0L12.477.477z" fill="#4B8BC7"/></svg>